<svg width="45" height="44" viewBox="0 0 45 44" fill="none" xmlns="http://www.w3.org/2000/svg">
<path d="M22.5 0C10.0748 0 0 9.85089 0 22C0 34.1491 10.0748 44 22.5 44C34.9252 44 45 34.1491 45 22C45 9.85089 34.9252 0 22.5 0ZM34.7394 28.9339L22.5 35.8482L10.2606 28.9339V15.1152L15.7852 11.992L15.7651 11.9821H15.7751L22.5 8.20089L29.2299 11.9821H29.2199L29.2048 11.992L34.7344 15.1152V28.9339H34.7394ZM12.2494 23.2129L16.649 25.6634V30.2991L21.5056 33.0442V22.6286L12.2494 17.4036V23.2129ZM22.49 15.7585L17.779 13.1116L13.2037 15.6946L22.505 20.9491L31.8064 15.6996L27.216 13.1067L22.49 15.7585ZM23.4944 33.0442L28.3811 30.2844V25.6634L32.7506 23.2326V17.4085L23.4944 22.6384V33.0442Z" fill="white"/>
</svg>
