<svg width="29" height="26" viewBox="0 0 29 26" fill="none" xmlns="http://www.w3.org/2000/svg">
<path d="M4.92226 21.4565C4.45762 21.4565 4.05107 21.2957 3.70259 20.974C3.35411 20.6524 3.17987 20.2771 3.17987 19.8483V5.9102C3.17987 5.48134 3.35411 5.10608 3.70259 4.78444C4.05107 4.46279 4.45762 4.30196 4.92226 4.30196H24.6693C25.134 4.30196 25.5405 4.46279 25.889 4.78444C26.2375 5.10608 26.4117 5.48134 26.4117 5.9102V19.8483C26.4117 20.2771 26.2375 20.6524 25.889 20.974C25.5405 21.2957 25.134 21.4565 24.6693 21.4565H4.92226ZM14.7958 13.3617L4.92226 7.38442V19.8483H24.6693V7.38442L14.7958 13.3617ZM14.7958 11.7535L24.5532 5.9102H5.06746L14.7958 11.7535ZM4.92226 7.38442V5.9102V19.8483V7.38442Z" fill="#6BEFAA"/>
</svg>
