<svg width="27" height="26" viewBox="0 0 27 26" fill="none" xmlns="http://www.w3.org/2000/svg">
<g clip-path="url(#clip0_141_402)">
<rect width="25.4607" height="25.4607" transform="translate(0.781006 0.146057)" fill="#255757"/>
<path d="M7.23717 25.5167C5.72301 25.4478 4.90048 25.1958 4.35339 24.9825C3.62847 24.7002 3.11164 24.3642 2.56757 23.8209C2.02351 23.2776 1.68678 22.7608 1.40604 22.0359C1.19265 21.4888 0.940669 20.6662 0.87181 19.1521C0.79614 17.5153 0.781006 17.0242 0.781006 12.8775C0.781006 8.73081 0.797653 8.24047 0.871053 6.60222C0.939913 5.08806 1.19341 4.26704 1.40528 3.71844C1.68753 2.99352 2.02426 2.47669 2.56682 1.93187C3.11013 1.38856 3.62695 1.05107 4.35263 0.770334C4.89972 0.556945 5.72225 0.304964 7.23641 0.236104C8.87391 0.161191 9.36576 0.146057 13.511 0.146057C17.6577 0.146057 18.148 0.162705 19.7863 0.236104C21.3004 0.304964 22.1215 0.558458 22.6701 0.770334C23.395 1.05107 23.9118 1.38856 24.4559 1.93187C24.9999 2.47518 25.3352 2.99276 25.6174 3.71768C25.8308 4.26477 26.0828 5.08731 26.1516 6.60146C26.2265 8.23972 26.2417 8.73006 26.2417 12.8768C26.2417 17.022 26.2265 17.5138 26.1516 19.1521C26.0828 20.6662 25.8293 21.4888 25.6174 22.0359C25.3352 22.7608 24.9992 23.2776 24.4559 23.8209C23.9126 24.3642 23.395 24.7002 22.6701 24.9825C22.123 25.1958 21.3004 25.4478 19.7863 25.5167C18.1495 25.5916 17.6577 25.6067 13.511 25.6067C9.36576 25.6067 8.87391 25.5924 7.23717 25.5167Z" fill="url(#paint0_radial_141_402)"/>
<path d="M7.23717 25.5167C5.72301 25.4478 4.90048 25.1958 4.35339 24.9825C3.62847 24.7002 3.11164 24.3642 2.56757 23.8209C2.02351 23.2776 1.68678 22.7608 1.40604 22.0359C1.19265 21.4888 0.940669 20.6662 0.87181 19.1521C0.79614 17.5153 0.781006 17.0242 0.781006 12.8775C0.781006 8.73081 0.797653 8.24047 0.871053 6.60222C0.939913 5.08806 1.19341 4.26704 1.40528 3.71844C1.68753 2.99352 2.02426 2.47669 2.56682 1.93187C3.11013 1.38856 3.62695 1.05107 4.35263 0.770334C4.89972 0.556945 5.72225 0.304964 7.23641 0.236104C8.87391 0.161191 9.36576 0.146057 13.511 0.146057C17.6577 0.146057 18.148 0.162705 19.7863 0.236104C21.3004 0.304964 22.1215 0.558458 22.6701 0.770334C23.395 1.05107 23.9118 1.38856 24.4559 1.93187C24.9999 2.47518 25.3352 2.99276 25.6174 3.71768C25.8308 4.26477 26.0828 5.08731 26.1516 6.60146C26.2265 8.23972 26.2417 8.73006 26.2417 12.8768C26.2417 17.022 26.2265 17.5138 26.1516 19.1521C26.0828 20.6662 25.8293 21.4888 25.6174 22.0359C25.3352 22.7608 24.9992 23.2776 24.4559 23.8209C23.9126 24.3642 23.395 24.7002 22.6701 24.9825C22.123 25.1958 21.3004 25.4478 19.7863 25.5167C18.1495 25.5916 17.6577 25.6067 13.511 25.6067C9.36576 25.6067 8.87391 25.5924 7.23717 25.5167Z" fill="#6BEFAA"/>
<path d="M10.3854 12.9306C10.3854 11.1894 11.7966 9.77747 13.5378 9.77747C15.2791 9.77747 16.691 11.1894 16.691 12.9306C16.691 14.6719 15.2791 16.0838 13.5378 16.0838C11.7966 16.0838 10.3854 14.6719 10.3854 12.9306ZM8.6809 12.9306C8.6809 15.6131 10.8553 17.7876 13.5378 17.7876C16.2203 17.7876 18.3948 15.6131 18.3948 12.9306C18.3948 10.2481 16.2203 8.07369 13.5378 8.07369C10.8553 8.07369 8.68097 10.248 8.68097 12.9306H8.6809ZM17.4521 7.88111C17.452 8.1056 17.5185 8.32507 17.6431 8.51178C17.7678 8.69849 17.945 8.84404 18.1524 8.93004C18.3597 9.01603 18.5879 9.0386 18.8081 8.99489C19.0283 8.95118 19.2306 8.84316 19.3894 8.68448C19.5482 8.52581 19.6564 8.3236 19.7003 8.10344C19.7442 7.88328 19.7218 7.65505 19.636 7.44762C19.5501 7.24018 19.4047 7.06285 19.2181 6.93805C19.0315 6.81326 18.8121 6.7466 18.5876 6.74651H18.5872C18.2862 6.74665 17.9977 6.86622 17.7849 7.07895C17.572 7.29169 17.4524 7.58019 17.4521 7.88111ZM9.71651 20.6299C8.79432 20.5879 8.29309 20.4343 7.95999 20.3045C7.51838 20.1326 7.20329 19.9278 6.872 19.597C6.54072 19.2662 6.33566 18.9514 6.16449 18.5098C6.03464 18.1768 5.88103 17.6754 5.83911 16.7533C5.79325 15.7562 5.7841 15.4567 5.7841 12.9308C5.7841 10.4049 5.79401 10.1062 5.83911 9.10832C5.88111 8.18613 6.03585 7.68573 6.16449 7.35179C6.33641 6.91018 6.54118 6.5951 6.872 6.26381C7.20283 5.93253 7.51762 5.72746 7.95999 5.5563C8.29293 5.42645 8.79432 5.27284 9.71651 5.23092C10.7135 5.18506 11.013 5.17591 13.5378 5.17591C16.0627 5.17591 16.3625 5.18567 17.3603 5.23107C18.2825 5.27307 18.7829 5.42781 19.1168 5.55645C19.5585 5.72761 19.8735 5.93313 20.2048 6.26396C20.5361 6.59479 20.7404 6.91034 20.9123 7.35195C21.0422 7.68489 21.1958 8.18628 21.2377 9.10847C21.2836 10.1063 21.2927 10.405 21.2927 12.9309C21.2927 15.4569 21.2836 15.7555 21.2377 16.7534C21.1957 17.6756 21.0414 18.1768 20.9123 18.5099C20.7404 18.9515 20.5357 19.2666 20.2048 19.5972C19.874 19.9277 19.5585 20.1328 19.1168 20.3047C18.7839 20.4345 18.2825 20.5881 17.3603 20.6301C16.3633 20.6759 16.0638 20.6851 13.5378 20.6851C11.0119 20.6851 10.7132 20.6759 9.71651 20.6301V20.6299ZM9.6382 3.52918C8.63126 3.57503 7.94319 3.7347 7.34229 3.96852C6.72036 4.20998 6.19317 4.53392 5.66673 5.05952C5.1403 5.58513 4.81719 6.1124 4.57572 6.73508C4.3419 7.33636 4.18224 8.02405 4.13638 9.03099C4.08977 10.0395 4.0791 10.3619 4.0791 12.9306C4.0791 15.4993 4.08977 15.8218 4.13638 16.8303C4.18224 17.8373 4.3419 18.5249 4.57572 19.1262C4.81719 19.7481 5.14037 20.2764 5.66673 20.8018C6.19309 21.3271 6.71961 21.6506 7.34229 21.8928C7.94432 22.1266 8.63126 22.2862 9.6382 22.3321C10.6473 22.378 10.9692 22.3894 13.5378 22.3894C16.1065 22.3894 16.429 22.3787 17.4375 22.3321C18.4445 22.2862 19.1321 22.1266 19.7334 21.8928C20.3553 21.6506 20.8825 21.3274 21.409 20.8018C21.9354 20.2761 22.2578 19.7481 22.5 19.1262C22.7338 18.5249 22.8942 17.8372 22.9393 16.8303C22.9852 15.821 22.9958 15.4993 22.9958 12.9306C22.9958 10.3619 22.9852 10.0395 22.9393 9.03099C22.8935 8.02397 22.7338 7.33598 22.5 6.73508C22.2578 6.11315 21.9346 5.58596 21.409 5.05952C20.8834 4.53309 20.3553 4.20998 19.7342 3.96852C19.1321 3.7347 18.4444 3.57427 17.4383 3.52918C16.4296 3.48309 16.1073 3.47189 13.539 3.47189C10.9707 3.47189 10.6476 3.48256 9.63857 3.52918" fill="#002E2E"/>
</g>
<defs>
<radialGradient id="paint0_radial_141_402" cx="0" cy="0" r="1" gradientUnits="userSpaceOnUse" gradientTransform="translate(2.42879 25.049) scale(32.3256)">
<stop offset="0.09" stop-color="#FA8F21"/>
<stop offset="0.78" stop-color="#D82D7E"/>
</radialGradient>
<clipPath id="clip0_141_402">
<rect width="25.4607" height="25.4607" fill="white" transform="translate(0.781006 0.146057)"/>
</clipPath>
</defs>
</svg>
